<svg width="49" height="48" viewBox="0 0 49 48" fill="none" xmlns="http://www.w3.org/2000/svg">
<path d="M45.0656 35.787L48.0304 24.5699C46.0096 24.0203 36.6612 22.6264 30.1265 22.5548C35.7545 19.2794 43.147 13.4676 44.6139 12.004L36.342 3.75108C34.8751 5.21465 29.0409 12.5993 25.767 18.2053C25.6983 11.6825 24.292 2.3464 23.7473 0.342444L12.5013 3.29744C13.0522 5.31358 16.5694 14.0892 19.8303 19.7668C14.1305 16.5224 5.34389 13.0042 3.32311 12.4546L0.358269 23.6718C2.37905 24.2213 11.7274 25.6152 18.2622 25.6868C12.6342 28.9623 5.24167 34.774 3.77473 36.2376L12.0467 44.4905C13.5136 43.027 19.3478 35.6423 22.6217 30.0363C22.6904 36.5591 24.0967 45.8952 24.6414 47.8992L35.8843 44.9411C35.3335 42.925 31.8162 34.1494 28.5553 28.4718C34.2551 31.7162 43.0417 35.2344 45.0625 35.7839L45.0656 35.787Z" fill="#041C0C"/>
</svg>
