<svg width="23" height="24" viewBox="0 0 23 24" fill="none" xmlns="http://www.w3.org/2000/svg">
<path fill-rule="evenodd" clip-rule="evenodd" d="M16.066 22.6018H6.83501C3.44424 22.6018 0.84296 21.3918 1.58184 16.5218L2.44219 9.92181C2.89767 7.49182 4.46653 6.56183 5.84308 6.56183H17.0984C18.4952 6.56183 19.973 7.56182 20.4993 9.92181L21.3597 16.5218C21.9872 20.8418 19.4568 22.6018 16.066 22.6018Z" stroke="white" stroke-width="2" stroke-linecap="round" stroke-linejoin="round"/>
<path d="M16.2181 6.32318C16.2181 3.71568 14.0791 1.60185 11.4406 1.60185C10.17 1.59657 8.94961 2.09164 8.04927 2.97763C7.14893 3.86362 6.64282 5.06754 6.64282 6.32318" stroke="white" stroke-width="2" stroke-linecap="round" stroke-linejoin="round"/>
<path d="M14.7184 11.2419H14.6682" stroke="white" stroke-width="2" stroke-linecap="round" stroke-linejoin="round"/>
<path d="M8.27434 11.2419H8.22412" stroke="white" stroke-width="2" stroke-linecap="round" stroke-linejoin="round"/>
</svg>
