<svg width="164" height="161" viewBox="0 0 164 161" fill="none" xmlns="http://www.w3.org/2000/svg">
<g clip-path="url(#clip0_224_86)">
<path d="M162.252 60.1023C159.378 47.5755 150.95 38.8216 143.42 40.5366C137.478 41.8937 101.372 64.9788 86.4774 74.6274C99.2163 62.3094 129.858 32.3793 132.508 26.9063C135.861 19.9718 129.155 9.84597 117.554 4.26856C105.937 -1.29394 93.8124 -0.190385 90.4593 6.72918C87.8097 12.2171 83.4237 54.7337 81.7023 72.3308C79.9808 54.7337 75.5948 12.2022 72.9453 6.72918C69.5921 -0.190385 57.4671 -1.29394 45.8509 4.26856C34.2348 9.83105 27.5436 19.9718 30.8967 26.9063C33.5462 32.3942 64.1883 62.3094 76.9271 74.6274C62.0327 64.9937 25.9269 41.8937 19.9841 40.5515C12.4546 38.8366 4.0269 47.6053 1.15281 60.1172C-1.72128 72.644 2.06593 84.1716 9.59546 85.8866C15.5382 87.2437 58.1257 82.0391 75.7445 79.7872C58.9041 85.3796 18.2626 99.0994 13.4875 102.887C7.45486 107.689 9.07154 119.709 17.11 129.745C25.1485 139.782 36.555 144.032 42.5877 139.23C47.3628 135.442 69.8317 99.0248 79.0377 83.9181C72.9303 100.516 58.3503 140.721 58.3503 146.806C58.3503 154.501 68.7988 160.734 81.6873 160.734C94.5758 160.734 105.024 154.501 105.024 146.806C105.024 140.721 90.4593 100.531 84.3368 83.9181C93.5579 99.0397 116.027 135.442 120.787 139.23C126.82 144.032 138.226 139.767 146.265 129.745C154.303 119.724 155.92 107.689 149.887 102.887C145.112 99.0994 104.485 85.3796 87.6301 79.7872C105.249 82.0242 147.821 87.2288 153.779 85.8866C161.339 84.1716 165.111 72.6291 162.237 60.1172L162.252 60.1023Z" fill="white"/>
</g>
<defs>
<clipPath id="clip0_224_86">
<rect width="163" height="160" fill="white" transform="translate(0.210693 0.71936)"/>
</clipPath>
</defs>
</svg>
