<svg width="222" height="115" viewBox="0 0 222 115" fill="none" xmlns="http://www.w3.org/2000/svg">
<path fill-rule="evenodd" clip-rule="evenodd" d="M156.756 0.043396L172.958 0.043396V16.3998L156.756 16.3998V0.043396ZM140.553 49.2531L24.8788 49.2531C20.3365 49.2531 16.6543 52.9353 16.6543 57.4775C16.6543 62.0198 20.3365 65.702 24.8788 65.702L140.553 65.702V65.6561H156.71V65.702H156.755V82.0592H156.71V114.865H140.553V82.0592L16.6543 82.0592H0.499221C0.473223 82.0592 0.452148 82.0381 0.452148 82.0121L0.452148 65.7255C0.452148 65.7125 0.462686 65.702 0.475685 65.702C0.488683 65.702 0.499221 65.6915 0.499221 65.6785L0.499221 49.2766C0.499221 49.2636 0.488683 49.2531 0.475685 49.2531C0.462686 49.2531 0.452148 49.2426 0.452148 49.2296L0.452148 32.9195C0.452148 32.9065 0.462686 32.8959 0.475685 32.8959H0.483937C0.492378 32.8959 0.499221 32.8891 0.499221 32.8806C0.499221 32.8638 0.512907 32.8501 0.52979 32.8501H16.6314C16.6441 32.8501 16.6543 32.8603 16.6543 32.873C16.6543 32.8857 16.6646 32.8959 16.6773 32.8959L140.553 32.8959V0.0439967L156.71 0.0439967V32.8959H156.755V49.2531H156.71H140.553ZM189.16 65.7022H205.362V82.0586H189.16V65.7022ZM189.16 82.1052H172.958V98.4616H189.16V82.1052ZM156.756 98.5083H172.958V114.865H156.756V98.5083ZM189.16 16.4931H172.958V32.8495H189.16V16.4931ZM221.565 49.2992H205.362V65.6555H221.565V49.2992ZM189.16 32.8961L205.362 32.8961V49.2525L189.16 49.2525V32.8961Z" fill="#041C0C"/>
</svg>
