<svg width="112" height="106" viewBox="0 0 112 106" fill="none" xmlns="http://www.w3.org/2000/svg">
<rect x="1.38306" y="0.942017" width="109.188" height="103.76" stroke="#1C2503"/>
<path d="M48.7908 14.8916V35.8515C48.2665 35.7932 47.7336 35.7633 47.1939 35.7633C44.2393 35.7633 41.493 36.6596 39.2092 38.1966C36.9255 36.6596 34.1792 35.7633 31.2246 35.7633C30.6848 35.7633 30.152 35.7932 29.6277 35.8515V24.9261C29.6277 16.9458 23.193 10.4765 15.2554 10.4765C7.31777 10.4765 0.883063 16.9458 0.883063 24.9261L0.883057 78.7108C0.883057 93.3414 12.68 105.202 27.2323 105.202H68.7523C79.7768 105.202 88.7139 96.2166 88.7139 85.1329H94.7024C103.742 85.1329 111.071 77.765 111.071 68.6764C111.071 59.5877 103.742 52.2198 94.7024 52.2198H85.9193C82.9796 52.2198 80.1575 52.7278 77.5354 53.66V14.8916C77.5354 6.91134 71.1007 0.442017 63.1631 0.442017C55.2255 0.442017 48.7908 6.91133 48.7908 14.8916Z" fill="white"/>
<path d="M63.1629 6.86414C67.5726 6.86414 71.1475 10.4582 71.1475 14.8917V65.8724C74.5825 61.4702 79.9222 58.642 85.919 58.642H94.7021C100.214 58.642 104.683 63.1345 104.683 68.6764C104.683 74.2183 100.214 78.7109 94.7021 78.7109H88.7136C85.1858 78.7109 82.326 81.5861 82.326 85.1329C82.326 92.6699 76.2487 98.7798 68.7521 98.7798H27.2321C16.2076 98.7798 7.27051 89.7946 7.27051 78.7109L7.27051 24.9262C7.27051 20.4927 10.8453 16.8986 15.2551 16.8986C19.6649 16.8986 23.2398 20.4927 23.2398 24.9262V60.6489H55.1782V14.8917C55.1782 10.4582 58.7531 6.86414 63.1629 6.86414Z" fill="white"/>
<path fill-rule="evenodd" clip-rule="evenodd" d="M54.7796 14.8921C54.7796 10.2369 58.5331 6.46313 63.1634 6.46313C67.7937 6.46313 71.5473 10.2369 71.5473 14.8921V64.7634C75.0581 60.7642 80.1958 58.241 85.9196 58.241H94.7027C100.435 58.241 105.083 62.9132 105.083 68.6768C105.083 74.4403 100.435 79.1126 94.7027 79.1126H88.7142C85.4069 79.1126 82.7257 81.8082 82.7257 85.1333C82.7257 92.8919 76.4698 99.1815 68.7526 99.1815H27.2326C15.9877 99.1815 6.87183 90.0167 6.87183 78.7113L6.87183 24.9265C6.87183 20.2714 10.6254 16.4976 15.2557 16.4976C19.886 16.4976 23.6395 20.2714 23.6395 24.9265V60.2478H54.7796V14.8921ZM63.1634 7.26589C58.9741 7.26589 55.578 10.6803 55.578 14.8921V60.6492C55.578 60.8709 55.3993 61.0506 55.1788 61.0506H23.2403C23.0198 61.0506 22.8411 60.8709 22.8411 60.6492V24.9265C22.8411 20.7147 19.445 17.3004 15.2557 17.3004C11.0664 17.3004 7.67029 20.7147 7.67029 24.9265L7.67029 78.7113C7.67029 89.5733 16.4286 98.3788 27.2326 98.3788H68.7526C76.0288 98.3788 81.9273 92.4486 81.9273 85.1333C81.9273 81.3648 84.9659 78.3099 88.7142 78.3099H94.7027C99.9944 78.3099 104.284 73.997 104.284 68.6768C104.284 63.3566 99.9944 59.0437 94.7027 59.0437H85.9196C80.0506 59.0437 74.8247 61.8111 71.4621 66.1205C71.3571 66.2551 71.1786 66.308 71.0177 66.2521C70.8568 66.1962 70.7488 66.0439 70.7488 65.8727V14.8921C70.7488 10.6803 67.3527 7.26589 63.1634 7.26589Z" fill="#555555"/>
<path d="M55.1777 50.2134C55.1777 45.7799 51.6029 42.1858 47.1931 42.1858C42.7833 42.1858 39.2085 45.7799 39.2085 50.2134V66.2685C39.2085 70.702 42.7833 74.2961 47.1931 74.2961C51.6029 74.2961 55.1777 70.702 55.1777 66.2685V50.2134Z" fill="white"/>
<path fill-rule="evenodd" clip-rule="evenodd" d="M55.5771 50.2129C55.5771 45.5577 51.8236 41.7839 47.1933 41.7839C42.563 41.7839 38.8094 45.5577 38.8094 50.2129V66.268C38.8094 70.9232 42.563 74.697 47.1933 74.697C51.8236 74.697 55.5771 70.9232 55.5771 66.268V50.2129ZM47.1933 42.5867C51.3826 42.5867 54.7787 46.0011 54.7787 50.2129V66.268C54.7787 70.4798 51.3826 73.8942 47.1933 73.8942C43.004 73.8942 39.6079 70.4798 39.6079 66.268V50.2129C39.6079 46.0011 43.004 42.5867 47.1933 42.5867Z" fill="#555555"/>
<path d="M39.2097 50.2134C39.2097 45.7799 35.6349 42.1858 31.2251 42.1858C26.8153 42.1858 23.2405 45.7799 23.2405 50.2134V66.2685C23.2405 70.702 26.8153 74.2961 31.2251 74.2961C35.6349 74.2961 39.2097 70.702 39.2097 66.2685V50.2134Z" fill="white"/>
<path fill-rule="evenodd" clip-rule="evenodd" d="M39.6082 50.2129C39.6082 45.5577 35.8546 41.7839 31.2243 41.7839C26.594 41.7839 22.8405 45.5577 22.8405 50.2129V66.268C22.8405 70.9232 26.594 74.697 31.2243 74.697C35.8546 74.697 39.6082 70.9232 39.6082 66.268V50.2129ZM31.2243 42.5867C35.4136 42.5867 38.8097 46.0011 38.8097 50.2129V66.268C38.8097 70.4798 35.4136 73.8942 31.2243 73.8942C27.035 73.8942 23.6389 70.4798 23.6389 66.268V50.2129C23.6389 46.0011 27.035 42.5867 31.2243 42.5867Z" fill="#555555"/>
</svg>
