<svg width="379" height="378" viewBox="0 0 379 378" fill="none" xmlns="http://www.w3.org/2000/svg">
<path d="M189.665 377.167C293.622 377.167 377.895 292.988 377.895 189.148C377.895 85.3082 293.622 1.12939 189.665 1.12939C85.709 1.12939 1.43555 85.3082 1.43555 189.148C1.43555 292.988 85.709 377.167 189.665 377.167Z" fill="white" stroke="#1C2503" stroke-miterlimit="10"/>
<path d="M111.074 51.1916L121.299 70.2544L121.203 70.3055L120.129 70.8791L121.296 71.2258L122.119 71.4701L123.269 71.8117L122.702 70.7545L122.654 70.6646L134.415 64.3843L135.48 66.3884L120.465 74.4224L108.689 52.4554L111.074 51.1916Z" fill="#1C2503" stroke="#1C2503"/>
<path d="M147.983 35.7374L148.705 37.8563L135.042 42.4701L134.569 42.6299L134.728 43.1031L137.054 50.0238L136.591 50.1793L136.751 50.6532L137.751 53.6288L137.911 54.1038L138.373 53.9473L140.908 61.4898L141.067 61.9626L141.54 61.8048L156.115 56.9447L156.823 59.0819L139.296 64.9175L131.388 41.3048L147.983 35.7374ZM139.001 52.6788L138.32 50.6529L150.113 46.6867L150.777 48.6918L139.001 52.6788Z" fill="#1C2503" stroke="#1C2503"/>
<path d="M176.093 32.9982L168.294 34.193L168.286 34.1406L168.21 33.6477L167.717 33.7219L164.027 34.277L163.532 34.3515L163.607 34.8462L163.617 34.9095L155.628 36.1333L155.289 33.9021L175.754 30.7671L176.093 32.9982ZM167.989 57.1424L164.755 35.7469L167.457 35.3329L170.734 56.7344L167.989 57.1424Z" fill="#1C2503" stroke="#1C2503"/>
<path d="M182.227 30.6323L184.963 30.5185L185.166 35.747L185.166 35.7681L185.169 35.7891C185.215 36.1617 185.176 36.54 185.054 36.8952C184.934 37.2456 184.737 37.5646 184.477 37.8287C183.916 38.3202 183.193 38.5882 182.447 38.581L182.424 38.5808L182.401 38.5826L182.119 38.6054V37.6489H182.194C182.495 37.677 182.797 37.6333 183.077 37.5214C183.366 37.4058 183.623 37.221 183.824 36.983L183.847 36.9561L183.866 36.9263C184.132 36.5022 184.252 36.003 184.209 35.5046V34.1952V33.6952H183.709H182.345L182.227 30.6323Z" fill="#1C2503" stroke="#1C2503"/>
<path d="M207.265 38.1348C207.228 37.2534 206.996 36.3887 206.583 35.6042L206.579 35.596L206.574 35.588C206.077 34.7235 205.344 34.0176 204.462 33.552L204.462 33.5519L204.454 33.5477C203.457 33.0456 202.367 32.7558 201.253 32.6965C199.805 32.4967 198.331 32.7853 197.065 33.5169L197.055 33.5224L197.046 33.5283C196.534 33.8551 196.107 34.2987 195.8 34.8227C195.495 35.3431 195.318 35.928 195.282 36.5297C195.235 36.9877 195.28 37.4503 195.412 37.8912C195.546 38.3361 195.766 38.7499 196.062 39.1086L196.071 39.1194L196.08 39.1296C196.747 39.8525 197.571 40.4124 198.488 40.7662C199.505 41.1721 200.74 41.5981 202.126 42.0223L202.135 42.0251L202.144 42.0275C203.152 42.2954 204.14 42.6363 205.099 43.0475L205.106 43.0505L205.113 43.0532C205.995 43.4001 206.82 43.8762 207.562 44.466C208.24 45.0126 208.783 45.7069 209.15 46.4957C209.538 47.4551 209.678 48.4966 209.557 49.5243L209.555 49.5422L209.554 49.5603C209.494 50.8835 209.027 52.1559 208.216 53.2037C207.358 54.2714 206.205 55.063 204.899 55.4796C203.215 56.0148 201.437 56.1967 199.679 56.0138L199.666 56.0124L199.653 56.0118C197.898 55.9211 196.187 55.441 194.642 54.6063C193.371 53.9125 192.33 52.8654 191.644 51.5922C191.047 50.4382 190.742 49.1586 190.751 47.8644L193.411 47.7517C193.41 48.4374 193.523 49.12 193.744 49.7716C194.027 50.6035 194.483 51.3663 195.081 52.0104L195.095 52.0251L195.109 52.0387C196.41 53.2313 198.092 53.9228 199.855 53.99C201.414 54.1707 202.993 53.9168 204.417 53.2563L204.435 53.2477L204.453 53.2376C205.099 52.8712 205.635 52.3379 206.004 51.6937C206.367 51.0599 206.556 50.3416 206.552 49.6117C206.611 49.1236 206.573 48.6285 206.439 48.1551C206.302 47.6699 206.068 47.2176 205.751 46.8257L205.739 46.8106L205.726 46.7965C205.057 46.0907 204.231 45.5534 203.315 45.2286C202.32 44.8331 201.306 44.488 200.276 44.1945L207.265 38.1348ZM207.265 38.1348L209.795 38.0228C209.802 37.1707 209.649 36.3233 209.344 35.5247C208.988 34.5915 208.431 33.7476 207.714 33.052M207.265 38.1348L207.714 33.052M196.477 42.7989C197.707 43.3562 198.977 43.8226 200.275 44.1944L196.477 42.7989ZM196.477 42.7989C195.55 42.3779 194.686 41.8294 193.911 41.1695C193.303 40.6116 192.833 39.9207 192.538 39.151C192.242 38.3122 192.138 37.4183 192.232 36.5341L192.234 36.5191L192.234 36.5039C192.29 35.2839 192.732 34.1131 193.497 33.1603C194.328 32.2054 195.402 31.4915 196.605 31.0936L196.477 42.7989ZM207.714 33.052C205.92 31.4827 203.627 30.6008 201.242 30.5637L201.224 30.5634L201.205 30.5618C199.652 30.4232 198.086 30.6042 196.605 31.0936L207.714 33.052Z" fill="#1C2503" stroke="#1C2503"/>
<path d="M247.906 41.2029L247.21 43.3812L239.659 40.9456L239.695 40.8329L239.848 40.3549L239.37 40.2034L235.79 39.0709L235.315 38.9205L235.163 39.3952L235.134 39.4862L227.506 37.0254L228.186 34.8488L247.906 41.2029ZM229.199 61.3181L235.781 40.7456L238.401 41.5908L231.803 62.1473L229.199 61.3181Z" fill="#1C2503" stroke="#1C2503"/>
<path d="M257.041 73.2704L257.551 67.2377L258.031 67.4763L258.101 66.7534L258.434 63.2892L258.467 62.9461L258.158 62.7932L257.936 62.683L258.701 53.6238L258.703 53.6028V53.5817C258.703 53.248 258.739 52.9016 258.785 52.5344C258.798 52.4371 258.811 52.3372 258.825 52.2356C258.861 51.9644 258.898 51.6815 258.923 51.4064C258.965 50.952 259.024 50.4628 259.089 49.9447L259.528 49.5231L260.049 49.0217L259.396 48.7111L258.929 48.4891L258.306 48.1929L258.219 48.877C258.202 49.0045 258.186 49.1314 258.169 49.2576C258.16 49.328 258.151 49.3982 258.142 49.4681L257.06 50.509L257.056 50.5121L255.442 52.0365L248.66 58.0935L248.554 58.0411L248.25 57.8902L247.997 58.1183L245.418 60.4499L244.874 60.9422L245.258 61.1327L240.779 65.1327L238.354 63.961L258.438 46.1193L261.746 47.7716L259.609 74.545L257.041 73.2704ZM248.823 59.2895L256.882 63.2773L256.678 65.6878L247.026 60.8943L248.823 59.2895Z" fill="#1C2503" stroke="#1C2503"/>
<path d="M280.36 58.8366L267.502 76.2708L267.415 76.2065L266.434 75.4835L266.625 76.687L266.758 77.5309L266.945 78.7118L267.654 77.7496L267.714 77.669L278.468 85.5966L277.107 87.4345L263.393 77.2812L278.183 57.2138L280.36 58.8366Z" fill="#1C2503" stroke="#1C2503"/>
<path d="M297.986 72.8074L299.869 74.7535L291.237 83.0883L290.826 83.0814L290.612 83.0778L290.461 83.2301L287.394 86.339L286.58 87.1631L287.007 87.1731L281.937 92.0681L280.054 90.1219L297.986 72.8074ZM309.121 84.3887L311.441 86.7839L298.502 86.4842L298.533 86.3182L298.841 84.7198L297.689 85.8701L296.955 86.6029L296.128 87.4295L297.296 87.4565L294.001 104.598L291.781 102.236L294.909 86.9458L295.028 86.3597L294.43 86.3458L289.424 86.2291L291.634 84.0951L309.121 84.3887Z" fill="#1C2503" stroke="#1C2503"/>
<path d="M301.434 102.577L303.178 104.609C302.639 105.032 302.174 105.543 301.802 106.12C301.327 106.857 301.014 107.687 300.884 108.554L300.881 108.571L300.88 108.587C300.732 110.369 301.245 112.143 302.32 113.572C303.132 114.912 304.309 115.995 305.713 116.693L305.729 116.701L305.746 116.708C306.432 116.989 307.181 117.08 307.914 116.974C308.636 116.869 309.318 116.576 309.889 116.124C310.313 115.867 310.681 115.529 310.974 115.129C311.273 114.72 311.487 114.254 311.602 113.76L311.607 113.741L311.61 113.721C311.749 112.793 311.676 111.845 311.394 110.949C311.122 109.997 310.76 108.984 310.335 107.911L310.335 107.911L310.333 107.906C309.822 106.657 309.398 105.373 309.066 104.065C308.82 103.076 308.72 102.057 308.769 101.039C308.82 100.219 309.069 99.4242 309.495 98.7218C309.97 97.9748 310.6 97.3387 311.343 96.8567L311.351 96.8516L311.359 96.8461C312.363 96.1391 313.566 95.7668 314.795 95.7825C316.071 95.8227 317.311 96.2169 318.376 96.9209L318.376 96.921L318.38 96.9238C319.686 97.7678 320.795 98.8826 321.632 100.193L321.644 100.213L321.659 100.232C323.132 102.111 323.883 104.454 323.777 106.838C323.677 107.83 323.361 108.789 322.852 109.647C322.414 110.383 321.844 111.03 321.17 111.554L319.273 109.412C319.948 108.847 320.481 108.128 320.824 107.312L320.825 107.31C321.209 106.384 321.312 105.366 321.121 104.382C320.915 103.286 320.474 102.248 319.827 101.339C319.079 100.075 317.934 99.0943 316.57 98.5489L316.558 98.544L316.545 98.5398C315.973 98.3449 315.362 98.2872 314.763 98.3714C314.169 98.4549 313.603 98.6758 313.109 99.0164C312.709 99.2638 312.361 99.587 312.085 99.968C311.806 100.353 311.606 100.789 311.496 101.251L311.49 101.275L311.487 101.298C311.351 102.278 311.433 103.275 311.726 104.22C312.083 105.454 312.504 106.67 312.986 107.861L312.986 107.861L312.989 107.869C313.399 108.834 313.749 109.823 314.036 110.83L314.036 110.83L314.037 110.835C314.305 111.745 314.433 112.69 314.417 113.638H314.417L314.417 113.645C314.414 114.524 314.191 115.387 313.768 116.158C313.27 117.047 312.564 117.801 311.71 118.357L311.7 118.364L311.691 118.37C310.615 119.143 309.328 119.567 308.003 119.587C306.635 119.568 305.303 119.15 304.17 118.384L304.168 118.383C302.698 117.401 301.452 116.12 300.512 114.624L300.504 114.611L300.494 114.598C299.469 113.177 298.784 111.539 298.492 109.812C298.261 108.406 298.442 106.962 299.012 105.656C299.558 104.447 300.39 103.391 301.434 102.577Z" fill="#1C2503" stroke="#1C2503"/>
<path d="M322.482 170.995L347.34 168.86L347.567 171.548L325.983 173.326L325.975 173.23L325.877 172.042L325.098 172.944L324.542 173.588L323.744 174.514L324.962 174.413L325.068 174.405L326.16 187.692L323.91 187.876L322.482 170.995Z" fill="#1C2503" stroke="#1C2503"/>
<path d="M348.611 194.133L347.181 211.547L344.954 211.363L346.136 197.139L346.177 196.64L345.679 196.599L338.319 195.992L338.333 195.828L338.374 195.328L337.874 195.289L334.761 195.045L334.264 195.006L334.224 195.502L334.211 195.652L326.316 195L325.817 194.959L325.776 195.458L324.527 210.77L322.256 210.585L323.775 191.998L348.611 194.133ZM334.127 208.922L335.126 196.731L337.241 196.906L336.243 209.103L334.127 208.922Z" fill="#1C2503" stroke="#1C2503"/>
<path d="M319.631 221.379L340.617 226.785L339.932 229.436L318.947 224.03L319.631 221.379ZM338.666 238.329L340.65 230.654L340.711 230.669L341.195 230.794L341.32 230.31L342.253 226.69L342.378 226.206L341.894 226.081L341.836 226.066L343.84 218.312L346.028 218.866L340.854 238.883L338.666 238.329Z" fill="#1C2503" stroke="#1C2503"/>
<path d="M332.032 243.869L332.048 243.901L332.069 243.931C332.359 244.34 332.767 244.652 333.239 244.822L334.505 245.288L334.965 245.458L335.144 245.001L335.63 243.753L338.478 244.841L337.502 247.394L332.611 245.529L332.595 245.523L332.578 245.518C332.213 245.407 331.877 245.217 331.594 244.963L331.337 245.249L331.594 244.963C331.316 244.714 331.095 244.408 330.946 244.067C330.726 243.357 330.769 242.592 331.068 241.911L331.077 241.89L331.084 241.868L331.141 241.696L332.052 242.043L332.019 242.13C331.888 242.396 331.82 242.689 331.82 242.987C331.82 243.293 331.892 243.596 332.032 243.869Z" fill="#1C2503" stroke="#1C2503"/>
<path d="M321.582 264.99C322.399 265.309 323.281 265.439 324.16 265.369L324.167 265.368L324.174 265.368C325.166 265.26 326.107 264.867 326.881 264.237C327.751 263.532 328.46 262.649 328.96 261.647C329.716 260.391 330.034 258.919 329.863 257.462L329.862 257.45L329.86 257.438C329.76 256.84 329.52 256.275 329.161 255.787C328.804 255.303 328.339 254.91 327.803 254.637C326.978 254.166 325.999 254.039 325.081 254.284L325.054 254.291L325.028 254.301C324.122 254.654 323.304 255.201 322.631 255.902C321.838 256.672 320.984 257.617 320.047 258.731L320.044 258.734C319.37 259.549 318.642 260.32 317.866 261.04L317.861 261.045L317.855 261.051C317.178 261.721 316.408 262.29 315.57 262.742C314.795 263.153 313.932 263.369 313.055 263.371C312.015 263.343 310.999 263.061 310.094 262.548L310.083 262.542L310.072 262.536C308.885 261.941 307.901 261.009 307.242 259.858C306.62 258.646 306.355 257.283 306.477 255.926C306.666 254.17 307.205 252.469 308.062 250.923L308.068 250.911L308.074 250.899C308.839 249.322 309.953 247.94 311.332 246.857C312.486 245.976 313.863 245.435 315.309 245.295C316.606 245.23 317.899 245.467 319.086 245.985L318.134 248.481C317.507 248.209 316.837 248.041 316.153 247.986C315.279 247.915 314.399 248.03 313.572 248.322L313.554 248.328L313.538 248.335C311.894 249.054 310.572 250.352 309.826 251.982C309.035 253.334 308.639 254.88 308.681 256.446L308.681 256.467L308.684 256.489C308.767 257.223 309.045 257.922 309.49 258.512C309.927 259.092 310.508 259.547 311.176 259.832C311.598 260.085 312.066 260.251 312.553 260.32C313.053 260.39 313.562 260.357 314.049 260.223L314.06 260.22L314.07 260.216C314.991 259.918 315.822 259.396 316.491 258.697C317.286 257.953 318.038 257.164 318.743 256.334L318.743 256.334L318.747 256.329C319.608 255.289 320.542 254.312 321.543 253.405L321.543 253.405L321.547 253.402C322.296 252.709 323.145 252.131 324.065 251.689C324.812 251.349 325.628 251.19 326.448 251.225C327.333 251.289 328.193 251.547 328.966 251.983L328.979 251.99L328.993 251.997C330.094 252.531 330.996 253.402 331.567 254.484C332.134 255.631 332.377 256.911 332.27 258.186C332.125 259.737 331.668 261.242 330.927 262.612L330.919 262.627L330.912 262.642C329.924 264.811 328.203 266.562 326.051 267.589C325.127 267.969 324.132 268.144 323.134 268.101C322.277 268.065 321.437 267.869 320.655 267.525L321.582 264.99Z" fill="#1C2503" stroke="#1C2503"/>
<path d="M291.577 275.879L307.913 290.085L306.118 292.146L289.769 277.947L291.577 275.879ZM301.011 299.537L306.217 293.556L306.274 293.606L306.652 293.934L306.98 293.556L309.425 290.736L309.752 290.359L309.376 290.031L309.324 289.987L314.582 283.947L316.306 285.499L302.735 301.088L301.011 299.537Z" fill="#1C2503" stroke="#1C2503"/>
<path d="M269.451 296.893L274.795 299.723L274.466 300.003L275.104 300.352L278.15 302.017L278.452 302.182L278.714 301.959L278.831 301.859L286.932 306.148L288.884 307.234L288.886 307.235L290.275 307.998L290.484 308.533L290.737 309.179L291.27 308.735L291.67 308.402L292.234 307.933L291.591 307.58L291.075 307.296L290.55 305.952C290.355 305.433 290.173 304.916 289.992 304.403C289.928 304.22 289.864 304.038 289.8 303.857L286.81 295.065L286.85 295.031L287.108 294.811L287 294.49L285.888 291.203L285.652 290.506L285.348 290.764L283.458 285.205L285.453 283.371L293.992 308.812L291.171 311.216L267.254 298.748L269.451 296.893ZM278.699 300.658L276.568 299.53L284.875 292.478L285.645 294.743L278.699 300.658Z" fill="#1C2503" stroke="#1C2503"/>
<path d="M273.676 323.923L262.685 305.315L262.792 305.252L263.866 304.621L262.654 304.335L261.809 304.135L260.666 303.864L261.264 304.876L261.314 304.961L249.824 311.708L248.682 309.75L263.362 301.022L275.994 322.563L273.676 323.923Z" fill="#1C2503" stroke="#1C2503"/>
<path d="M242.74 325.924L244.874 321.275L245.971 324.205L238.736 340.244L235.624 341.425L241.018 329.675L241.16 329.771L242.484 330.668L241.907 329.177L241.529 328.2L241.102 327.096L240.608 328.172L240.602 328.185L226.133 318.38L229.189 317.217L242 326.126L242.491 326.467L242.74 325.924ZM244.976 311.265L253.801 334.552L251.27 335.508L247.052 324.24L247.165 323.989L247.25 323.8L247.177 323.606L245.576 319.387L245.153 318.271L244.968 318.673L242.549 312.212L244.976 311.265Z" fill="#1C2503" stroke="#1C2503"/>
<path d="M211.651 339.55C211.905 340.394 212.35 341.172 212.955 341.822L212.955 341.822L212.962 341.829C213.664 342.553 214.561 343.057 215.545 343.279L215.549 343.28C216.637 343.517 217.763 343.518 218.852 343.285C220.304 343.1 221.655 342.443 222.698 341.415L222.707 341.406L222.717 341.396C223.123 340.95 223.418 340.415 223.578 339.833C223.736 339.257 223.758 338.651 223.64 338.065C223.572 337.592 223.41 337.136 223.165 336.725C222.917 336.309 222.589 335.947 222.199 335.66L222.179 335.646L222.158 335.634C221.311 335.128 220.365 334.81 219.383 334.701C218.106 334.533 216.821 334.436 215.533 334.408L215.533 334.408L215.525 334.408C214.475 334.402 213.427 334.33 212.387 334.191L212.387 334.191C211.445 334.065 210.526 333.809 209.655 333.429C208.859 333.073 208.164 332.525 207.632 331.836C206.954 330.875 206.523 329.763 206.378 328.596C206.234 327.431 206.38 326.248 206.802 325.152C207.358 323.909 208.264 322.855 209.41 322.118C210.911 321.176 212.586 320.543 214.335 320.257L214.35 320.255L214.365 320.251C216.077 319.865 217.853 319.864 219.565 320.251C220.956 320.589 222.225 321.308 223.228 322.328C224.12 323.311 224.757 324.494 225.09 325.774L222.523 326.564C222.351 325.904 222.071 325.276 221.693 324.706C221.209 323.977 220.575 323.359 219.834 322.893L219.818 322.883L219.802 322.875C218.214 322.036 216.378 321.798 214.63 322.203C213.077 322.425 211.619 323.079 210.42 324.089L210.407 324.1L210.395 324.112C209.861 324.629 209.478 325.28 209.286 325.998C209.098 326.702 209.101 327.443 209.295 328.145C209.357 328.638 209.518 329.112 209.768 329.542C210.024 329.983 210.368 330.367 210.779 330.67L210.793 330.68L210.808 330.689C211.604 331.195 212.506 331.51 213.445 331.608C214.432 331.72 215.492 331.81 216.645 331.833C218 331.863 219.35 331.987 220.688 332.204C221.697 332.37 222.676 332.684 223.593 333.136L223.594 333.137C224.328 333.496 224.958 334.035 225.426 334.704C225.929 335.443 226.265 336.283 226.411 337.166L226.412 337.174L226.414 337.182C226.651 338.38 226.516 339.622 226.027 340.741C225.48 341.892 224.628 342.872 223.562 343.573L223.559 343.574C222.274 344.429 220.825 345.008 219.304 345.275L219.288 345.277L219.272 345.281C216.963 345.845 214.529 345.577 212.398 344.525C211.527 344.035 210.772 343.362 210.183 342.554C209.683 341.867 209.314 341.095 209.093 340.277L211.651 339.55Z" fill="#1C2503" stroke="#1C2503"/>
<path d="M125.372 334.395L122.956 333.196L132.574 313.816L132.666 313.862L133.734 314.395L133.365 313.26L133.099 312.438L132.72 311.272L132.175 312.37L132.124 312.473L120.224 306.529L121.241 304.513L136.444 312.085L125.372 334.395Z" fill="#1C2503" stroke="#1C2503"/>
<path d="M97.9183 302.319L107.898 309.569L106.652 311.285L96.6624 304.042L97.9183 302.319ZM106.874 312.681L106.941 312.729L107.347 313.023L107.64 312.616L109.463 310.085L109.754 309.681L109.351 309.388L109.295 309.348L113.952 302.936L114.246 302.531L113.841 302.238L101.417 293.225L102.746 291.373L117.762 302.265L103.122 322.419L88.9709 312.169L90.293 310.357L101.85 318.747L102.254 319.04L102.548 318.636L106.874 312.681Z" fill="#1C2503" stroke="#1C2503"/>
<path d="M94.7863 283.561L79.3489 298.61L77.4551 296.651L92.8648 281.609L94.7863 283.561ZM70.5354 290.932L76.0445 296.63L75.9159 296.756L75.5581 297.105L75.9074 297.463L78.5084 300.128L78.8574 300.485L79.2152 300.136L79.3279 300.027L84.8786 305.768L83.3615 307.283L68.9084 292.465L70.5354 290.932Z" fill="#1C2503" stroke="#1C2503"/>
<path d="M66.5782 284.475L67.4068 285.546L65.0004 287.415L63.3765 285.258L67.4391 282.052L67.4538 282.04L67.4675 282.027C67.7478 281.77 68.0819 281.578 68.4456 281.466C68.8013 281.356 69.1766 281.324 69.5455 281.373C70.2663 281.559 70.8964 281.998 71.3202 282.61L71.3301 282.624L71.341 282.638L71.4678 282.796L70.6987 283.392L70.6546 283.331C70.4915 283.079 70.2751 282.866 70.0208 282.706C69.7616 282.544 69.4695 282.441 69.1657 282.406L69.1179 282.401L69.07 282.404C68.5742 282.442 68.1032 282.636 67.7252 282.959L66.6687 283.773L66.2716 284.078L66.5782 284.475Z" fill="#1C2503" stroke="#1C2503"/>
<path d="M74.0643 270.524L72.4547 268.418C73.0115 268.02 73.4997 267.532 73.8987 266.974C74.407 266.262 74.7591 265.451 74.9319 264.594L74.9347 264.58L74.9368 264.565C75.1916 262.778 74.7612 260.961 73.7324 259.477C72.9726 258.122 71.8596 256.997 70.5114 256.223L70.4918 256.211L70.4713 256.202C69.7974 255.892 69.0527 255.768 68.3147 255.844C67.5896 255.918 66.8971 256.182 66.3069 256.608C65.8715 256.84 65.4871 257.157 65.1765 257.54C64.8578 257.934 64.6237 258.389 64.4893 258.877L64.4867 258.887L64.4845 258.896C64.2688 259.818 64.2688 260.778 64.4845 261.7L64.4844 261.7L64.4857 261.705C64.7405 262.744 65.0497 263.768 65.4121 264.774C65.8643 266.047 66.2218 267.352 66.4815 268.677L66.4815 268.677L66.4822 268.681C66.6846 269.675 66.7346 270.695 66.6305 271.705L66.6304 271.705L66.6297 271.712C66.5584 272.522 66.2835 273.301 65.8307 273.976C65.2801 274.71 64.5792 275.318 63.7748 275.759L63.761 275.767L63.7477 275.775C62.7166 276.429 61.5096 276.751 60.2896 276.698C59.013 276.594 57.7893 276.143 56.7512 275.394C55.4908 274.468 54.4329 273.296 53.6425 271.948L53.6331 271.931L53.6225 271.916C52.2711 269.96 51.6628 267.587 51.9067 265.223C52.0527 264.236 52.413 263.292 52.9623 262.459C53.4338 261.743 54.0346 261.123 54.7329 260.63L56.419 262.687C55.7058 263.245 55.1349 263.968 54.7576 264.797C54.3388 265.701 54.1857 266.704 54.3162 267.691L54.3161 267.692L54.3179 267.703C54.4905 268.808 54.8896 269.865 55.49 270.808C56.1644 272.1 57.2554 273.127 58.587 273.723L58.5945 273.726L58.6022 273.729C59.1647 273.959 59.7739 274.051 60.3791 273.997C60.9774 273.945 61.5549 273.751 62.0642 273.433C62.4828 273.212 62.8514 272.906 63.147 272.536C63.4468 272.161 63.665 271.727 63.7875 271.262L63.7894 271.255L63.791 271.248C64.0152 270.282 64.0153 269.278 63.7912 268.313C63.5412 267.223 63.1794 266.05 62.712 264.628L62.7087 264.618L62.7051 264.608C62.3383 263.631 62.0405 262.629 61.8136 261.61L61.8137 261.61L61.8115 261.601C61.5872 260.675 61.4944 259.722 61.5358 258.771C61.5933 257.891 61.8567 257.038 62.3048 256.278C62.875 255.426 63.6432 254.723 64.5442 254.23L64.5597 254.222L64.5746 254.212C65.6909 253.496 66.9994 253.136 68.3257 253.181C69.6875 253.27 70.9959 253.744 72.098 254.548C73.5045 255.616 74.6831 256.954 75.5648 258.483L75.5707 258.493L75.5772 258.503C76.5268 259.983 77.1316 261.656 77.3468 263.401C77.5182 264.825 77.273 266.268 76.6409 267.556C76.0285 268.737 75.1447 269.754 74.0643 270.524Z" fill="#1C2503" stroke="#1C2503"/>
<path d="M41.088 235.405L61.8309 228.775L62.5769 231.367L41.9221 237.988L41.088 235.405ZM37.3925 227.216L39.8281 234.758L39.7858 234.772L39.3062 234.925L39.4629 235.404L40.6188 238.934L40.7734 239.407L41.2466 239.255L41.2771 239.245L43.7545 246.916L41.5942 247.61L35.2323 227.91L37.3925 227.216Z" fill="#1C2503" stroke="#1C2503"/>
<path d="M56.0458 201.616L50.8652 204.688L50.7913 204.226L50.1607 204.594L47.1596 206.349L46.8641 206.521L46.9182 206.859L46.9428 207.013L39.1123 211.656L37.1839 212.763C37.1835 212.763 37.1831 212.763 37.1826 212.763C36.7594 213.003 36.3236 213.248 35.8502 213.496L35.2972 213.394L34.7071 213.286V213.886V214.375V215.164L35.4209 214.827C35.6227 214.731 35.817 214.636 36.0048 214.541L37.5361 214.821L39.7503 215.264L48.577 217.215L48.6078 217.407L48.6615 217.743L48.9931 217.816L52.3944 218.571L53.1128 218.731L53.0277 218.199L58.9937 219.518L59.3949 222.275L33.1576 216.316L32.5751 212.675L55.5943 198.797L56.0458 201.616ZM48.0378 207.526L50.1102 206.298L51.8079 216.905L49.4569 216.386L48.0378 207.526Z" fill="#1C2503" stroke="#1C2503"/>
<path d="M30.7468 193.808V191.1L52.3798 191.451L52.378 191.561L52.3583 192.764L53.2248 191.929L53.8474 191.33L54.72 190.489L53.5086 190.469L53.3961 190.468L53.6145 177.146H55.8843L55.6745 194.192L30.7468 193.808Z" fill="#1C2503" stroke="#1C2503"/>
<path d="M32.4284 166.035L44.2049 168.189L44.3987 168.469L44.5161 168.639L44.7191 168.677L49.1653 169.498L50.3394 169.715L50.0272 169.254L56.9441 170.519L56.4574 173.176L31.9425 168.672L32.4284 166.035ZM34.8233 152.859L35.4147 149.579L42.6929 160.251L42.5557 160.314L41.1473 160.962L42.6687 161.259L43.6914 161.459L44.8865 161.692L44.2004 160.686L44.1858 160.665L60.0704 153.36L59.5028 156.6L45.2516 162.931L44.7058 163.174L45.0405 163.669L47.8642 167.842L44.7921 167.28L34.8233 152.859Z" fill="#1C2503" stroke="#1C2503"/>
<path d="M49.4368 130.102L50.2345 127.516C49.4226 127.282 48.5731 127.198 47.7284 127.27C46.7293 127.356 45.761 127.658 44.8907 128.155C42.8775 129.432 41.3804 131.379 40.6632 133.651L40.6581 133.667L40.652 133.682C40.0827 135.137 39.8218 136.694 39.8856 138.254L39.8858 138.258L39.8858 138.258C39.9281 139.534 40.329 140.773 41.0429 141.833C41.7443 142.832 42.7387 143.589 43.8891 143.999L43.9022 144.004L43.9021 144.004C44.7331 144.327 45.6222 144.474 46.5131 144.437C47.3301 144.369 48.1187 144.105 48.8127 143.669L48.8139 143.668C49.6776 143.129 50.4475 142.453 51.0932 141.666L51.0984 141.659L51.1038 141.653C51.9949 140.637 52.8041 139.552 53.524 138.408L49.4368 130.102ZM49.4368 130.102C48.5767 129.881 47.6752 129.857 46.8005 130.035L46.7855 130.038L46.7707 130.042C45.8366 130.292 44.9884 130.792 44.3172 131.488L44.3172 131.488L44.3103 131.495C43.5498 132.316 42.9642 133.283 42.5893 134.336C42.0003 135.668 41.8678 137.156 42.2127 138.571L42.2147 138.579L42.2169 138.587C42.3816 139.176 42.6866 139.716 43.1059 140.162C43.5206 140.602 44.0349 140.937 44.6056 141.139C45.0387 141.326 45.5055 141.422 45.9775 141.422C46.4561 141.422 46.9296 141.323 47.3679 141.131L47.3778 141.126L47.3875 141.122C48.2807 140.682 49.0575 140.039 49.6547 139.243C50.3288 138.368 51.068 137.338 51.8945 136.111L51.9005 136.102L51.9061 136.093C52.4529 135.2 53.0561 134.343 53.7122 133.528C54.3272 132.785 55.0407 132.129 55.8331 131.579L55.8357 131.577C56.5513 131.074 57.3799 130.753 58.2485 130.644C59.2851 130.544 60.3304 130.7 61.2928 131.098L61.3065 131.103L61.3206 131.108C62.5752 131.541 63.6682 132.345 64.455 133.412C65.2246 134.538 65.6556 135.86 65.6968 137.222C65.7408 138.985 65.4204 140.738 64.7554 142.372L64.7508 142.383L64.7468 142.394C64.1625 144.055 63.2228 145.568 61.9933 146.829C60.9709 147.87 59.6692 148.592 58.245 148.911C56.9457 149.173 55.6035 149.106 54.3409 148.718L54.9708 146.121C55.6249 146.313 56.3075 146.397 56.9913 146.367C57.8662 146.33 58.7232 146.108 59.5063 145.717L59.5205 145.71L59.5342 145.702C61.0893 144.796 62.2466 143.34 62.7764 141.622C63.3891 140.187 63.59 138.61 63.3564 137.067L63.3535 137.048L63.349 137.029C63.1805 136.303 62.819 135.636 62.3029 135.098C61.7952 134.569 61.1562 134.185 60.4514 133.983C59.998 133.788 59.5096 133.688 59.0159 133.688C58.51 133.688 58.0096 133.793 57.5468 133.998L57.5379 134.002L57.5292 134.006C56.6784 134.422 55.9395 135.035 55.3738 135.794C54.7099 136.631 54.0924 137.503 53.5241 138.408L49.4368 130.102Z" fill="#1C2503" stroke="#1C2503"/>
<path d="M189.667 293.517C247.373 293.517 294.152 246.789 294.152 189.148C294.152 131.507 247.373 84.7798 189.667 84.7798C131.961 84.7798 85.1809 131.507 85.1809 189.148C85.1809 246.789 131.961 293.517 189.667 293.517Z" fill="#1C2503" stroke="#1C2503" stroke-miterlimit="10"/>
<path d="M82.4575 90.6868C82.4575 92.8631 80.6912 94.6283 78.5112 94.6283C76.3312 94.6283 74.5649 92.8631 74.5649 90.6868C74.5649 88.5104 76.3312 86.7452 78.5112 86.7452C80.6912 86.7452 82.4575 88.5104 82.4575 90.6868Z" fill="#1C2503" stroke="#1C2503"/>
<path d="M174.715 333.845C174.715 336.021 172.949 337.786 170.769 337.786C168.589 337.786 166.823 336.021 166.823 333.845C166.823 331.668 168.589 329.903 170.769 329.903C172.949 329.903 174.715 331.668 174.715 333.845Z" fill="#1C2503" stroke="#1C2503"/>
<path d="M330.334 140.65C330.334 142.827 328.568 144.592 326.388 144.592C324.208 144.592 322.442 142.827 322.442 140.65C322.442 138.474 324.208 136.709 326.388 136.709C328.568 136.709 330.334 138.474 330.334 140.65Z" fill="#1C2503" stroke="#1C2503"/>
</svg>
