<svg width="86" height="52" viewBox="0 0 86 52" fill="none" xmlns="http://www.w3.org/2000/svg">
<path d="M74.7464 51.8483C73.7407 51.8483 73.2835 51.3619 72.2169 51.3619L71.3635 45.8291H71.973C73.1311 50.6931 73.8321 51.2403 74.8073 51.2403C75.7826 51.2403 76.2397 50.3587 77.0626 47.8355L77.794 45.6467H76.8797L72.095 32.6963C71.394 30.7811 70.8454 30.6291 69.7483 30.3251V30.0211H76.514V30.3251C74.8988 30.6291 74.8073 30.7811 75.5083 32.7267L78.9216 42.2419L82.0911 32.7267C82.7311 30.8115 82.6397 30.6291 81.0245 30.3251V30.0211H85.0168V30.3251C83.8892 30.6291 83.3711 30.8115 82.7311 32.7267L77.733 47.7747C76.8492 50.3587 76.3921 51.8483 74.7464 51.8483Z" fill="white"/>
<path d="M57.9451 37.4995C57.9451 32.6963 60.5965 29.5955 64.5584 29.5955C66.1431 29.5955 67.0574 30.1123 68.3984 30.1123L69.1908 35.4019H68.5812C67.545 30.9635 66.2041 30.2035 64.8631 30.2035C62.4555 30.2035 61.3889 33.0915 61.3889 36.9219C61.3889 40.6611 62.4251 44.1571 65.3508 44.1571C66.8136 44.1571 68.3679 43.2147 69.4041 39.5971L69.9831 39.7491C68.7336 44.2787 66.6612 45.6467 64.1622 45.6467C60.3222 45.6467 57.9451 42.7283 57.9451 37.4995Z" fill="white"/>
<path d="M43.9822 33.3955C43.9822 31.3587 43.7079 31.1459 42.4889 30.8419V30.5379H44.4394C45.3232 30.5075 46.0546 30.3251 46.6946 29.5955H46.9994V31.9971C48.1575 30.8115 49.7117 29.5955 51.6927 29.5955C54.1308 29.5955 55.6241 30.9331 55.6241 34.0947V42.3635C55.6241 44.4003 55.8984 44.6131 57.087 44.9171V45.2211H51.1136V44.9171C52.3327 44.6131 52.607 44.4003 52.607 42.3635V33.3651C52.607 31.6323 51.9974 30.6899 50.7174 30.6899C49.4984 30.6899 48.2489 31.5107 46.9994 32.7571V42.3635C46.9994 44.4003 47.2736 44.6131 48.4622 44.9171V45.2211H42.4889V44.9171C43.7079 44.6131 43.9822 44.4003 43.9822 42.3635V33.3955Z" fill="white"/>
<path d="M29.7324 37.5603C29.7324 32.6963 32.3838 29.5955 36.1324 29.5955C39.1191 29.5955 41.2829 31.6323 41.2829 35.5843H33.1457V36.3747C33.1457 40.6915 34.2429 44.1571 37.1991 44.1571C38.6619 44.1571 40.2772 43.2147 41.3438 39.5971L41.9229 39.7491C40.6734 44.3395 38.5095 45.6467 36.0105 45.6467C32.14 45.6467 29.7324 42.7283 29.7324 37.5603ZM33.1762 34.9763H38.2048C38.2048 31.5715 37.4429 30.2035 36.041 30.2035C34.2124 30.2035 33.3896 32.0275 33.1762 34.9763Z" fill="white"/>
<path d="M21.6927 43.6404C20.3213 43.6404 19.1632 43.306 18.2184 42.7284C17.8527 42.9412 17.5784 43.1236 17.5784 43.4884C17.5784 44.1268 18.5841 44.4307 21.6622 45.3428C25.5937 46.4676 27.6356 46.9235 27.6356 48.9907C27.6356 51.0884 25.3498 51.8787 23.1251 51.8787C20.2603 51.8787 18.8584 50.9972 18.8584 49.538C18.8584 48.5044 19.6508 47.7444 20.8089 47.2884C17.2127 46.2852 15.6584 45.738 15.6584 44.4004C15.6584 43.3668 16.5422 42.7892 17.7003 42.3636C16.1765 41.1476 15.3842 39.1412 15.3842 36.618C15.3842 32.362 17.6699 29.5652 21.6927 29.5652C22.4546 29.5652 23.1251 29.6564 23.7651 29.8388C24.4051 28.5012 25.2584 27.5588 26.6908 26.89L27.9708 28.6836C25.9289 28.7444 25.0451 29.1396 24.3137 30.0516C26.6908 30.994 28.0318 33.3652 28.0318 36.618C28.0318 40.874 25.746 43.6404 21.6927 43.6404ZM18.767 36.618C18.767 40.418 19.468 43.0324 21.6927 43.0324C23.9479 43.0324 24.6489 40.3876 24.6489 36.618C24.6489 32.818 23.9479 30.1732 21.6927 30.1732C19.468 30.1732 18.767 32.818 18.767 36.618ZM20.5346 49.4468C20.5346 50.6628 21.4489 51.2708 23.1556 51.2708C24.6794 51.2708 25.4718 50.6324 25.4718 49.7204C25.4718 48.626 24.7403 48.3828 21.7537 47.5316C21.0527 47.9268 20.5346 48.4739 20.5346 49.4468Z" fill="white"/>
<path d="M10.6362 45.6163C9.99617 45.6163 9.59998 45.2211 9.59998 44.1875V43.3363C8.74665 44.7651 7.34475 45.6467 5.51618 45.6467C2.46857 45.6467 0 43.7011 0 39.4451C0 35.2195 2.46857 33.3043 5.54666 33.3043C7.37522 33.3043 8.74665 34.1251 9.59998 35.5843V34.8851C9.59998 31.3283 8.8076 30.2035 6.73523 30.2035C5.27237 30.2035 3.23047 30.8419 1.43238 33.2739H0.79238L2.40761 30.1427C3.93142 30.1427 5.3638 29.5955 7.13141 29.5955C10.5143 29.5955 12.6476 31.2067 12.6476 34.9459V41.9987C12.6476 44.0355 12.6476 44.1267 14.2324 43.6707L14.3543 43.9139L12.0685 45.1299C11.459 45.4339 11.0628 45.6163 10.6362 45.6163ZM3.38285 39.4451C3.38285 42.6979 4.63237 44.4915 6.46094 44.4915C8.22856 44.4915 9.59998 42.8195 9.59998 39.4451C9.59998 36.1011 8.22856 34.4291 6.49142 34.4291C4.63237 34.4291 3.38285 36.1923 3.38285 39.4451Z" fill="white"/>
<path d="M64.3085 22.3694C63.6339 22.3694 63.0635 22.1418 62.5972 21.6866C62.1409 21.2215 61.9127 20.6575 61.9127 19.9944C61.9127 19.3314 62.1409 18.7723 62.5972 18.3171C63.0635 17.852 63.6339 17.6194 64.3085 17.6194C64.9832 17.6194 65.5486 17.852 66.005 18.3171C66.4712 18.7723 66.7044 19.3314 66.7044 19.9944C66.7044 20.6575 66.4712 21.2215 66.005 21.6866C65.5486 22.1418 64.9832 22.3694 64.3085 22.3694Z" fill="white"/>
<path d="M52.4049 22.1171V5.52179H56.1995V8.31241H56.3781C56.6757 7.34262 57.1966 6.60044 57.9406 6.08585C58.6847 5.56137 59.5329 5.29913 60.4852 5.29913C60.6936 5.29913 60.9317 5.30903 61.1995 5.32882C61.4773 5.34861 61.7055 5.37335 61.8841 5.40304V8.99523C61.7154 8.93585 61.4525 8.88637 61.0954 8.84679C60.7382 8.80721 60.396 8.78741 60.0686 8.78741C59.3444 8.78741 58.6995 8.9408 58.1341 9.24757C57.5686 9.55434 57.1222 9.97491 56.7948 10.5093C56.4773 11.0437 56.3186 11.6671 56.3186 12.3796V22.1171H52.4049Z" fill="white"/>
<path d="M42.8956 22.4436C41.229 22.4436 39.7905 22.0973 38.5802 21.4046C37.3699 20.702 36.4373 19.7124 35.7826 18.4358C35.1377 17.1593 34.8153 15.6551 34.8153 13.9233C34.8153 12.2114 35.1377 10.7121 35.7826 9.42568C36.4274 8.12933 37.3351 7.11995 38.5058 6.39756C39.6764 5.67516 41.0554 5.31396 42.6427 5.31396C43.6645 5.31396 44.6318 5.47725 45.5445 5.80381C46.4671 6.13037 47.2806 6.63506 47.9849 7.31787C48.6992 8.00068 49.2597 8.87152 49.6665 9.93037C50.0732 10.9793 50.2766 12.2312 50.2766 13.6858V14.903H36.6457V12.2757H48.3272L46.4968 13.0476C46.4968 12.1075 46.353 11.291 46.0653 10.5983C45.7776 9.89573 45.351 9.34652 44.7855 8.95068C44.2201 8.55485 43.5157 8.35693 42.6724 8.35693C41.8292 8.35693 41.1099 8.55485 40.5147 8.95068C39.9195 9.34652 39.4681 9.88089 39.1605 10.5538C38.853 11.2168 38.6992 11.959 38.6992 12.7804V14.6062C38.6992 15.6155 38.8728 16.4814 39.2201 17.2038C39.5772 17.9163 40.0732 18.4606 40.7082 18.8366C41.353 19.2127 42.102 19.4007 42.9552 19.4007C43.5107 19.4007 44.0167 19.3215 44.473 19.1632C44.9393 19.0048 45.3361 18.7673 45.6635 18.4507C46.0008 18.1241 46.2587 17.7233 46.4373 17.2483L50.098 17.6788C49.8599 18.6387 49.4185 19.4798 48.7736 20.2022C48.1387 20.9147 47.3202 21.4689 46.3183 21.8647C45.3262 22.2507 44.1853 22.4436 42.8956 22.4436Z" fill="white"/>
<path d="M33.5511 5.52186V8.54999H24.0125V5.52186H33.5511ZM26.3488 1.57343H30.2624V17.1297C30.2624 17.7828 30.4063 18.2677 30.694 18.5844C30.9817 18.8911 31.438 19.0445 32.063 19.0445C32.2317 19.0445 32.4202 19.0297 32.6285 19C32.8368 18.9703 33.0253 18.9357 33.194 18.8961L33.8636 21.9539C33.447 22.0825 33.0253 22.1765 32.5987 22.2359C32.1722 22.3052 31.7456 22.3398 31.319 22.3398C29.7714 22.3398 28.5561 21.9341 27.6732 21.1226C26.7902 20.3013 26.3488 19.1831 26.3488 17.768V1.57343Z" fill="white"/>
<path d="M11.6752 12.4094V22.1172H7.76147V5.5219H11.6008V8.35706H11.7942C12.1712 7.42685 12.7615 6.68961 13.565 6.14534C14.3785 5.59117 15.4103 5.31409 16.6603 5.31409C17.8111 5.31409 18.813 5.55653 19.6662 6.04143C20.5194 6.52633 21.1791 7.23883 21.6454 8.17893C22.1216 9.10914 22.3597 10.2373 22.3597 11.5633V22.1172H18.446V12.1719C18.446 11.0636 18.1583 10.1977 17.5829 9.57424C17.0075 8.94091 16.2138 8.62424 15.2019 8.62424C14.5174 8.62424 13.9073 8.77268 13.3716 9.06956C12.8458 9.36643 12.4291 9.7969 12.1216 10.361C11.824 10.9151 11.6752 11.5979 11.6752 12.4094Z" fill="white"/>
<path d="M4.71145 0V22.1172H0.693604V0H4.71145Z" fill="white"/>
</svg>
